<?xml version="1.0" encoding="UTF-8"?>
<svg width="512" height="512" viewBox="0 0 512 512" fill="none" xmlns="http://www.w3.org/2000/svg">
  <!-- Background Circle -->
  <circle cx="256" cy="256" r="256" fill="#D2461A"/>
  
  <!-- Coffee Cup -->
  <g transform="translate(128, 128)">
    <!-- Cup Body -->
    <path d="M52 64H204C222.778 64 238 79.222 238 98V214C238 232.778 222.778 248 204 248H52C33.222 248 18 232.778 18 214V98C18 79.222 33.222 64 52 64Z" fill="white"/>
    
    <!-- Handle -->
    <path d="M238 118C254.569 118 268 131.431 268 148V166C268 182.569 254.569 196 238 196" stroke="white" stroke-width="12" fill="none"/>
    
    <!-- Coffee Surface -->
    <ellipse cx="128" cy="86" rx="86" ry="12" fill="#8B4513"/>
    
    <!-- Steam Lines -->
    <path d="M96 42C96 42 102 22 108 32C114 22 120 42 120 42" stroke="white" stroke-width="6" stroke-linecap="round"/>
    <path d="M128 42C128 42 134 22 140 32C146 22 152 42 152 42" stroke="white" stroke-width="6" stroke-linecap="round"/>
    <path d="M160 42C160 42 166 22 172 32C178 22 184 42 184 42" stroke="white" stroke-width="6" stroke-linecap="round"/>
    
    <!-- Lion's Emblem -->
    <circle cx="128" cy="156" r="32" fill="#D2461A" stroke="white" stroke-width="4"/>
    <text x="128" y="166" text-anchor="middle" font-family="serif" font-size="24" font-weight="bold" fill="white">L</text>
  </g>
</svg>