<?xml version="1.0" encoding="UTF-8"?>
<svg width="180" height="180" viewBox="0 0 180 180" fill="none" xmlns="http://www.w3.org/2000/svg">
  <!-- Background with rounded corners for iOS -->
  <rect width="180" height="180" rx="36" ry="36" fill="#D2461A"/>
  
  <!-- Coffee Cup -->
  <g transform="translate(45, 45)">
    <!-- Cup Body -->
    <path d="M18 22H72C77.523 22 82 26.477 82 32V75C82 80.523 77.523 85 72 85H18C12.477 85 8 80.523 8 75V32C8 26.477 12.477 22 18 22Z" fill="white"/>
    
    <!-- Handle -->
    <path d="M82 41C87.523 41 92 45.477 92 51V58C92 63.523 87.523 68 82 68" stroke="white" stroke-width="4" fill="none"/>
    
    <!-- Coffee Surface -->
    <ellipse cx="45" cy="30" rx="30" ry="4" fill="#8B4513"/>
    
    <!-- Steam Lines -->
    <path d="M34 15C34 15 36 7 38 11C40 7 42 15 42 15" stroke="white" stroke-width="2" stroke-linecap="round"/>
    <path d="M45 15C45 15 47 7 49 11C51 7 53 15 53 15" stroke="white" stroke-width="2" stroke-linecap="round"/>
    <path d="M56 15C56 15 58 7 60 11C62 7 64 15 64 15" stroke="white" stroke-width="2" stroke-linecap="round"/>
  </g>
</svg>